<?xml version="1.0" standalone="no"?>
<!DOCTYPE svg PUBLIC "-//W3C//DTD SVG 20010904//EN"
 "http://www.w3.org/TR/2001/REC-SVG-20010904/DTD/svg10.dtd">
<svg version="1.0" xmlns="http://www.w3.org/2000/svg"
 width="1110.000000pt" height="1110.000000pt" viewBox="0 0 1110.000000 1110.000000"
 preserveAspectRatio="xMidYMid meet">
<metadata>
Created by potrace 1.14, written by Peter Selinger 2001-2017
</metadata>
<g transform="translate(0.000000,1110.000000) scale(0.100000,-0.100000)"
fill="#000000" stroke="none">
<path d="M5279 11096 c-2 -2 -58 -7 -124 -10 -66 -4 -127 -9 -135 -11 -8 -2
-46 -6 -85 -9 -38 -4 -81 -8 -95 -11 -14 -2 -41 -6 -60 -9 -89 -13 -117 -18
-140 -22 -158 -27 -218 -38 -290 -55 -47 -12 -92 -22 -100 -24 -132 -29 -399
-109 -565 -169 -55 -20 -104 -38 -110 -40 -17 -5 -47 -17 -145 -58 -96 -41
-127 -53 -145 -59 -22 -6 -383 -191 -440 -224 -33 -19 -71 -40 -85 -47 -14 -7
-36 -20 -50 -29 -14 -9 -68 -43 -120 -75 -198 -124 -515 -356 -626 -459 -6 -5
-40 -35 -75 -65 -400 -346 -783 -801 -1071 -1270 -283 -462 -503 -978 -637
-1495 -24 -93 -69 -290 -77 -335 -2 -8 -6 -31 -10 -50 -4 -19 -8 -42 -9 -50 0
-8 -5 -37 -10 -65 -5 -27 -10 -54 -10 -60 -9 -70 -18 -133 -20 -145 -2 -9 -6
-43 -10 -75 -3 -33 -8 -73 -10 -90 -27 -203 -27 -830 0 -1070 8 -71 17 -149
20 -169 2 -11 6 -43 10 -71 8 -63 15 -112 21 -139 2 -11 13 -71 24 -133 31
-167 129 -554 159 -628 5 -11 23 -65 40 -120 18 -55 37 -109 42 -120 4 -11 19
-49 33 -85 13 -36 30 -78 37 -95 7 -16 13 -32 14 -35 1 -5 19 -46 62 -144 45
-103 163 -336 222 -439 62 -110 61 -107 115 -197 45 -75 243 -368 260 -385 6
-7 20 -24 31 -39 19 -26 36 -48 103 -135 175 -224 514 -575 712 -737 19 -16
37 -31 40 -34 28 -33 324 -258 440 -335 41 -28 77 -52 80 -55 13 -14 202 -129
350 -213 99 -55 365 -189 474 -237 137 -60 432 -173 486 -186 3 0 12 -3 20 -7
97 -39 533 -152 705 -182 54 -9 209 -34 248 -40 174 -24 244 -32 387 -42 206
-15 791 -8 910 11 14 2 54 7 90 10 36 3 76 8 90 10 14 3 45 7 70 10 25 4 59 8
75 11 63 10 91 15 115 20 13 3 41 7 61 10 85 13 311 65 470 109 472 130 1022
370 1419 620 217 137 530 362 657 473 17 16 55 48 84 73 155 133 398 376 534
535 88 102 101 118 171 207 91 115 177 232 251 344 63 94 193 301 193 307 0 2
23 44 51 93 172 298 344 704 463 1094 55 181 119 450 151 635 2 17 7 39 9 50
3 17 10 64 31 205 28 191 40 402 40 705 0 382 -11 525 -71 920 -21 138 -89
440 -135 600 -147 509 -357 984 -621 1405 -33 52 -65 104 -71 114 -70 114
-285 402 -411 551 -167 197 -440 475 -593 602 -12 10 -32 27 -45 38 -155 134
-467 364 -628 463 -450 278 -850 464 -1311 607 -210 66 -496 136 -689 170
-178 30 -318 49 -460 60 -41 4 -86 9 -100 12 -28 5 -676 14 -681 9z"/>
</g>
</svg>
